<?xml version="1.0" encoding="UTF-8"?>
<svg id="Camada_2" data-name="Camada 2" xmlns="http://www.w3.org/2000/svg" viewBox="0 0 262.2 101.73">
  <defs>
    <style>
      .cls-1 {
        fill: #402b2f;
      }
    </style>
  </defs>
  <g id="Calque_1" data-name="Calque 1">
    <g>
      <path class="cls-1" d="M21.5,69.61c-1.96,4.38-2.64,4.59-7.36,4.59-3.4,0-4.08-.34-4.59-.94-.64-.72-.72-2.25-.72-4.38v-14.93c0-4.42.38-4.55,2.38-4.85l.93-.17c.34-.21.3-1.06-.08-1.23-1.87.09-3.79.13-5.66.13s-3.87-.04-6-.13c-.38.17-.38,1.02-.09,1.23l1.19.17c2,.3,2.38.43,2.38,4.85v15.82c0,4.42-.38,4.55-2.38,4.81l-1.28.21c-.38.21-.25,1.06.09,1.23,1.79-.09,3.91-.13,6.08-.13h4.42c4.76,0,8.42.04,10.21.13.51-1.15,1.45-4.38,1.79-6.17-.21-.34-.89-.47-1.32-.25"/>
      <path class="cls-1" d="M22.57,46.13c-1.91,0-2.42,1.27-2.42,2,0,.94.68,1.45,1.32,1.53,1.02.13,2.3.81,2.3,2.21,0,1.87-1.62,3.11-3.44,3.87-.13.34-.04.85.3,1.11,2.93-.72,5.83-3.1,5.83-6.34,0-2.34-1.79-4.38-3.87-4.38"/>
      <path class="cls-1" d="M50.92,75.1c-10.47,0-14.3-10.21-14.3-18.07,0-11.64,7.18-15.41,12.71-15.41,10.15,0,14.03,9.46,14.03,18.23,0,10.47-6.06,15.26-12.44,15.26M50.23,39.97c-10.95,0-18.92,8.13-18.92,18.76,0,9.57,7.12,18.02,18.92,18.02,10.26,0,18.45-7.82,18.45-18.55,0-9.35-6.17-18.23-18.45-18.23"/>
      <path class="cls-1" d="M98.86,68.54c-1.19,2.77-3.53,6.34-8.89,6.34s-11.14-4.42-11.14-13.48,5.44-12.54,10.84-12.54,7.53,3.53,8.25,6.21c.3.3,1.06.25,1.36-.09-.43-3.15-.51-5.66-.59-6.63-.38-.09-.68-.13-1.19-.26-2-.51-4.93-.94-7.36-.94-4.29,0-8.59,1.23-11.74,3.61-3.15,2.42-5.36,6.29-5.36,11.27,0,5.57,2.59,9.44,6.04,11.7,3.06,2,6.68,2.85,10.89,2.85,2.76,0,5.7-.72,6.63-1.02.47-.13.98-.3,1.49-.38.6-.81,1.74-3.61,2.04-6.46-.21-.38-.89-.55-1.28-.17"/>
      <path class="cls-1" d="M108.95,73.73c3.06,2,6.68,2.85,10.89,2.85,2.76,0,5.7-.72,6.63-1.02.47-.13.98-.3,1.49-.38.6-.81,1.74-3.61,2.04-6.46-.21-.38-.89-.55-1.28-.17-1.19,2.77-3.53,6.34-8.89,6.34s-11.14-4.42-11.14-13.48,5.44-12.55,10.84-12.55,7.53,3.53,8.25,6.21c.3.3,1.06.25,1.36-.09-.43-3.15-.51-5.66-.59-6.63-.38-.09-.68-.13-1.19-.26-2-.51-4.93-.94-7.36-.94-4.3,0-8.59,1.23-11.74,3.61-3.15,2.42-5.36,6.29-5.36,11.27,0,5.57,2.59,9.44,6.04,11.7"/>
      <path class="cls-1" d="M145.33,76.03c.34-.17.38-.93.09-1.23l-.94-.13c-2-.25-2.38-.38-2.38-4.89v-15.82c0-4.51.38-4.63,2.38-4.89l.94-.13c.3-.3.25-1.06-.09-1.23-1.87.08-3.79.13-5.66.13s-3.87-.04-5.74-.13c-.34.17-.38.93-.08,1.23l.93.13c2,.26,2.38.38,2.38,4.89v15.82c0,4.51-.38,4.64-2.38,4.89l-.93.13c-.3.3-.26,1.06.08,1.23,1.87-.08,3.87-.13,5.74-.13s3.78.04,5.66.13"/>
      <path class="cls-1" d="M159.95,49.54c1.11,0,1.15.09,1.15,1.87v18.37c0,4.51-.38,4.64-2.38,4.8l-1.79.21c-.3.21-.25,1.06.09,1.23,2.72-.09,4.72-.13,6.59-.13s3.78.04,6.25.13c.34-.17.38-.94.09-1.23l-1.53-.17c-2-.21-2.38-.34-2.38-4.85v-18.37c0-1.79.04-1.87,1.15-1.87h2.42c4.55,0,5.36.81,5.91,4.13.38.3,1.1.21,1.32-.13-.13-1.36.21-5.02.64-6.76-.08-.13-.3-.21-.55-.21-.17,0-.34.08-.51.17-.51.98-1.15,1.1-3.23,1.1h-17.35c-2.89,0-3.48-.04-3.7-1.1-.08-.13-.25-.17-.42-.17-.21,0-.38.04-.47.17-.3,1.49-.94,4.13-1.66,6.42.17.43,1.06.55,1.36.3,1.57-3.45,2.72-3.91,6.63-3.91h2.38Z"/>
      <path class="cls-1" d="M190.1,63.57h-4.42c-1.02,0-1.15,0-.68-1.23l1.79-4.97c.77-2,1.11-3.06,1.28-3.36h.09c.21.3.47,1.1,1.19,3.36l1.79,5.1c.34,1.02.17,1.1-1.02,1.1M203.16,74.8l-.64-.13c-2.17-.38-2.38-.68-3.36-3.53l-6.12-17.82c-.68-1.91-1.23-3.91-1.91-5.83-.17-.21-.38-.34-.72-.34-.09,0-1.49,1.74-2.98,2.04.13.72-.25,1.74-.81,3.11l-5.82,15.14c-.9,2.3-1.57,4.08-2.09,5.19-.64,1.41-1.1,1.79-2.34,1.96l-1.28.21c-.3.38-.25,1.02.04,1.23,1.49-.09,2.81-.13,4.21-.13,1.74.04,3.15.04,4.51.13.34-.17.38-.94.08-1.23l-1.23-.21c-1.57-.21-1.74-.34-.89-2.85l1.74-5.1c.38-1.15.34-1.15,1.45-1.15h5.66c1.19,0,1.32,0,1.74,1.15l2,5.78c.55,1.83.43,2.08-1.1,2.25l-.93.13c-.26.25-.22,1.02.13,1.23,1.49-.04,3.36-.13,5.19-.13,2.21,0,3.79.04,5.53.13.3-.21.3-.94-.04-1.23"/>
      <path class="cls-1" d="M235.79,47.71c-1.53.08-2.64.13-4.47.13-1.66,0-3.23-.04-4.89-.13-.43.13-.47.93-.09,1.23l.98.13c1.06.17,1.74.43,2.13,1.06.77,1.28.81,5.19.81,8.38v8.29c0,.68,0,.89-.13,1.02-.43-.25-4.38-4.76-6.16-6.72l-4.25-4.6c-1.49-1.61-6.12-6.97-6.85-8.8-1.02.08-2.04.13-2.93.13-1.06,0-3.4.04-5.02-.13-.43.13-.47.98-.17,1.23l.64.13c.59.13,1.79.47,2.25.85,1.45,1.23,1.4,1.92,1.4,5.23v10.08c0,3.36,0,7.06-.55,8.38-.3.68-1.06.85-1.87.98l-.94.21c-.34.3-.26,1.02.09,1.23,1.49-.08,2.64-.13,4.42-.13,1.61,0,3.27.04,4.85.13.43-.13.47-.93.09-1.23l-.94-.13c-1.06-.17-1.79-.43-2.17-1.06-.72-1.28-.77-5.19-.77-8.38v-8.29c0-2.25,0-2.72.13-2.72.72.64,2.08,2.25,4.85,5.36l9.95,11.35c3.06,3.49,4.3,4.93,4.98,5.82.51.04,1.11-.13,1.45-.59-.13-.98-.13-6.21-.13-7.48v-10.16c0-3.36,0-7.06.59-8.38.3-.68,1.02-.85,1.83-.98l.98-.21c.34-.3.25-1.02-.09-1.23"/>
      <path class="cls-1" d="M260.84,69.61c-1.49,3.44-2.43,4.68-7.83,4.59-3.57,0-4.3-.34-4.8-.94-.64-.72-.72-2.25-.72-4.42v-5.4c0-1.06.04-1.15,1.02-1.15h2.04c3.7,0,4.42.09,4.72,1.87l.3,1.7c.34.26,1.15.26,1.36-.04-.04-1.36-.13-2.85-.13-4.47s.08-3.11.13-4.25c-.21-.34-1.02-.34-1.36-.04l-.3,1.44c-.3,1.83-1.02,1.87-4.72,1.87h-2.04c-.98,0-1.02-.04-1.02-1.15v-7.19c0-2.42,0-2.51,1.83-2.51h2.85c1.15,0,2.42.09,3.4.38,1.36.34,2,1.4,2.68,3.87.34.25,1.19.17,1.36-.17-.25-1.83-.51-5.19-.68-5.91-.55.08-3.02.13-5.74.13h-8.12c-1.87,0-3.87-.04-5.49-.13-.34.17-.38.93-.09,1.23l.68.09c2,.3,2.38.43,2.38,4.93v15.82c0,4.51-.38,4.64-2.38,4.85l-1.57.17c-.3.3-.25,1.06.08,1.23,1.91-.08,4.51-.13,6.38-.13h4.85c4.97,0,8.63.04,10.5.13.6-1.15,1.53-4.38,1.79-6.17-.25-.43-.98-.55-1.36-.25"/>
      <path class="cls-1" d="M108.58,93.08c-.3.19-1.48.38-2.14.38-.08,0-.21,0-.33,0h0c0-2.24,0-4.95.02-5.25,0-.03,0-.05,0-.07.1-.03.27-.07.43-.07,1.07,0,1.79.23,2.34.75.5.46.77,1.21.77,2.15s-.57,1.74-1.09,2.11M114.57,100.32c-.15,0-.7-.05-1.4-.76-.44-.44-.88-.97-1.51-1.82-.58-.78-1.94-2.92-2.35-3.71.35-.15.82-.38,1.13-.65.44-.35,1.36-1.07,1.36-2.73,0-1.14-.54-2.19-1.48-2.87-.79-.57-1.7-.82-3.03-.82-.35,0-.72.02-1.1.05-.83.06-1.75.04-2.27,0-.29-.03-.63-.07-.9.04-.12.05-.24.14-.3.26-.1.2-.03.44.14.58.14.11.33.16.5.2.61.1.61.16.65.7v.14c.05.69.13,1.85.13,4.62,0,3.38-.05,4.86-.11,5.86-.05.74-.18.76-.65.85-.33.07-.73.17-.73.57,0,.13.05.54.75.54.18,0,.4-.02.65-.04.33-.03.71-.07,1.16-.07.39,0,.68.03.93.06.23.02.43.05.64.05.78,0,.82-.45.82-.54,0-.44-.47-.52-.65-.56-.61-.1-.66-.23-.69-.33-.04-.12-.13-.79-.15-1.82-.02-.78,0-2.99.02-3.55.46,0,.67.04.81.08.14.03.27.16.45.36.1.12.44.65.8,1.21.7,1.09,1.66,2.57,2.36,3.46.73.9,1.68,1.82,3.24,1.82.43,0,.75-.04.94-.11.13-.05.51-.19.51-.54,0-.26-.23-.52-.67-.52"/>
      <path class="cls-1" d="M127.98,99.76c-.64.47-1.29.69-2.06.69-1.53,0-2.86-.74-3.95-2.2-.9-1.21-1.48-2.88-1.48-4.25,0-1.92.55-3.65,1.5-4.75.62-.72,1.93-1.46,3.04-1.46,1.4,0,2.53.51,3.47,1.57,1.17,1.33,1.9,3.24,1.9,4.99,0,2.67-1.25,4.55-2.41,5.42M125.45,86.69c-1.52,0-3.22.57-4.34,1.44-1.97,1.5-2.89,3.36-2.89,5.86,0,4.15,3.35,7.66,7.32,7.66.92,0,1.93-.23,2.9-.67,1.56-.69,4.21-2.86,4.21-6.65,0-4.14-3.29-7.64-7.19-7.64"/>
      <path class="cls-1" d="M148.86,87.02c-.25.02-.53.05-.79.05-.22,0-.54-.03-.86-.05-.35-.03-.69-.05-.92-.05-.69,0-.8.33-.8.52,0,.29.23.49.65.57.74.19.77.27.77.41,0,.27-.16.88-.4,1.55-.31.88-2.22,5.8-3.03,7.82-.87-2.14-2.97-7.62-3.3-8.64-.13-.4-.21-.62-.21-.83,0-.05.1-.19.41-.23.19-.03.78-.12.78-.62,0-.12-.06-.52-.8-.52-.16,0-.4.02-.69.03-.37.02-.81.05-1.2.05-.12,0-.4-.02-.7-.04-.36-.02-.74-.05-.94-.05-.74,0-.8.4-.8.52,0,.18.09.49.74.6.43.06.7.29.9.76.92,2.15,4.01,10.14,4.68,12.13l.04.13c.07.22.17.59.57.59.27,0,.48-.23.53-.55.05-.22.33-1.01.83-2.26.95-2.32,1.73-4.23,2.33-5.71.66-1.64,1.11-2.73,1.32-3.2.75-1.69.96-1.75,1.5-1.9.19-.05.7-.18.7-.64,0-.41-.37-.53-1.33-.44"/>
      <path class="cls-1" d="M182.87,87.01c-.09,0-.23,0-.39.02-.4.03-1.08.05-1.72,0-.94-.06-1.47.03-1.47.49,0,.4.39.5.7.57.52.14.79.2.79,1.26l.04,3.57c.02,1.78.05,3.68.06,4.75-2.36-2.64-7.39-8.35-8.66-9.99-.31-.4-.48-.62-.8-.62-.43,0-.93-.03-1.36-.06-.35-.02-.65-.04-.85-.04-.57,0-.86.18-.86.54,0,.47.5.55.73.58.48.08.66.17.86.33.1.07.23.18.23,1.24,0,1.35-.17,8.55-.23,9.27-.1,1.12-.21,1.16-.86,1.34-.28.08-.67.18-.67.59,0,.24.13.52.75.52.06,0,.17-.01.33-.03.52-.06,1.53-.08,2.15-.01,1.19.12,1.4-.18,1.4-.48,0-.43-.42-.54-.67-.61-.4-.11-.72-.3-.79-.47-.14-.3-.2-.77-.2-1.64,0-.46.02-2.52.03-4.55.01-1.33.02-2.63.03-3.47,1.16,1.36,2.59,3.01,3.98,4.62,2.27,2.63,4.42,5.11,5.2,6.07l.09.11c.18.22.36.46.57.65.15.14.39.22.59.13.16-.07.25-.24.29-.41.04-.2.02-.4.01-.6-.03-.7-.02-1.45-.01-2.39,0-.56.01-1.18.01-1.9,0-2.26.05-6.76.14-7.42.07-.48.1-.68.66-.87l.1-.03c.19-.07.53-.18.53-.55,0-.23-.13-.5-.73-.5"/>
      <path class="cls-1" d="M200.21,97.33c-.4,0-.53.43-.59.65-.28.85-.78,1.49-1.49,1.91-.58.35-1.33.52-2.37.52s-2.47-.38-3.47-1.45c-.88-.95-1.91-2.81-1.91-4.92,0-1.98.74-3.81,1.46-4.59.68-.71,1.8-1.66,3.67-1.66,1.21,0,2.4.39,3.06,1.02.31.25.72.86.87,1.5.13.46.38.56.57.56.31,0,.52-.29.52-.73,0-.07,0-.21-.02-.37-.02-.34-.06-.85-.02-1.23,0-.26-.14-.52-.37-.67h-.02c-.77-.47-2.65-1.19-4.43-1.19-1.87,0-3.81.71-5.06,1.84-1.7,1.54-2.53,3.42-2.53,5.75,0,1.88.95,3.98,1.88,4.93,1.12,1.13,2.77,2.43,5.72,2.43,1.91,0,3.24-.62,4.42-1.31.16-.12.27-.28.32-.48.01-.07.04-.2.07-.36.13-.62.23-1.16.23-1.44,0-.49-.26-.71-.52-.71"/>
      <path class="cls-1" d="M163.87,98.4c-.17-.07-.35-.03-.49.07-.16.11-.28.28-.39.44l-.12.17c-.16.23-.44.63-.56.74-.26.24-.43.3-2.43.3-1.52,0-1.74-.05-2.01-.19-.25-.13-.36-.49-.36-.63,0-.15,0-.68-.02-1.32-.02-1.04-.04-2.4-.04-3.05v-.1c2.83,0,2.63.02,2.99.13.1.04.2.18.28.42,0,0,.07.18.07.19.06.15.12.32.25.42.14.12.38.14.54.04.12-.07.2-.22.25-.35.05-.16.05-.32.02-.49-.02-.12-.08-.67-.04-1.04.02-.15.04-.34.06-.51.04-.27.07-.52.07-.6,0-.49-.31-.63-.5-.63-.34,0-.5.33-.56.45-.24.47-.37.56-.41.59-.08.05-.22.09-1.21.09h-1.8v-4.94c0-.2,0-.33.02-.4.73-.04,3.53-.02,4.03.07.17.03.42.07.81,1.01.06.15.14.31.26.42.14.12.36.16.53.08.14-.08.22-.24.25-.4.02-.11.03-.25,0-.36-.08-.35-.11-.8-.13-1.09l-.02-.25c-.07-.46-.27-.69-.58-.69-.09,0-.18,0-.3.01-.2.01-.48.03-.97.03-.41,0-1.35.01-2.32.02-1.02.01-2.08.02-2.57.02-.36,0-.66-.02-.93-.04-.25-.01-.47-.03-.71-.03-.41,0-.69.2-.69.5,0,.17.08.47.6.58.52.11.69.15.69,1.29,0,4.49-.02,6.53-.11,9.91-.02.71-.24.88-.87.98-.23.04-.71.13-.71.56,0,.09.04.54.78.54.09,0,.3-.01.57-.03.44-.03,1.03-.07,1.47-.07.81,0,1.77.02,2.8.04,1.17.02,2.42.05,3.62.05.18,0,.44-.08.63-.45.1-.21.21-.59.33-1.04.05-.2.11-.41.16-.59.04-.14.08-.27.07-.42,0-.18-.11-.37-.29-.45"/>
      <path class="cls-1" d="M215.22,98.4c-.17-.07-.35-.03-.49.07-.16.11-.28.28-.39.44l-.12.17c-.16.23-.44.63-.56.74-.26.24-.43.3-2.43.3-1.52,0-1.74-.05-2.01-.19-.25-.13-.36-.49-.36-.63,0-.15,0-.68-.02-1.32-.02-1.04-.04-2.4-.04-3.05v-.1c2.83,0,2.63.02,2.99.13.1.04.2.18.28.42,0,0,.07.18.07.19.06.15.12.32.25.42.14.12.38.14.54.04.12-.07.2-.22.25-.35.05-.16.05-.32.02-.49-.02-.12-.08-.67-.04-1.04.02-.15.04-.34.06-.51.04-.27.07-.52.07-.6,0-.49-.31-.63-.5-.63-.34,0-.5.33-.56.45-.24.47-.37.56-.41.59-.08.05-.22.09-1.21.09h-1.8v-4.94c0-.2,0-.33.02-.4.73-.04,3.53-.02,4.03.07.17.03.42.07.81,1.01.06.15.14.31.26.42.14.12.36.16.53.08.14-.08.22-.24.25-.4.02-.11.03-.25,0-.36-.08-.35-.11-.8-.13-1.09l-.02-.25c-.07-.46-.27-.69-.58-.69-.09,0-.18,0-.3.01-.2.01-.48.03-.97.03-.41,0-1.35.01-2.32.02-1.02.01-2.08.02-2.57.02-.36,0-.66-.02-.93-.04-.25-.01-.47-.03-.71-.03-.41,0-.69.2-.69.5,0,.17.08.47.6.58.52.11.69.15.69,1.29,0,4.49-.02,6.53-.11,9.91-.02.71-.24.88-.87.98-.23.04-.71.13-.71.56,0,.09.04.54.78.54.09,0,.3-.01.57-.03.44-.03,1.03-.07,1.47-.07.81,0,1.78.02,2.8.04,1.17.02,2.42.05,3.62.05.18,0,.44-.08.63-.45.1-.21.21-.59.33-1.04.05-.2.11-.41.16-.59.04-.14.08-.27.07-.42,0-.18-.11-.37-.29-.45"/>
      <path class="cls-1" d="M94.32,94.27c-.54.36-1.46.65-2.84.14,0-1.61-.01-3.8-.02-5.16l.02-1.27c.18-.04.54-.1.85-.1.9,0,1.56.31,2.25,1.03.9.9.95,2.28.95,2.55,0,1.59-.61,2.4-1.22,2.81M96.48,88.28c-.88-.97-2.3-1.49-4.09-1.49-.21,0-.68.04-1.14.08-.36.03-.72.06-.94.07-.57.02-1.18.04-1.49.04-.42,0-.73.23-.73.54s.22.48.69.56c.5.05.51.21.52.35.04.39.15,3.2.15,4.95,0,3.27-.02,5.75-.04,6.24-.03.47-.07.51-.6.62-.18.04-.67.14-.67.58,0,.19.1.52.78.52.1,0,.26-.01.44-.03.24-.02.55-.05.85-.05.54,0,.9.03,1.22.06.27.02.52.05.82.05.7,0,.73-.45.73-.54,0-.48-.56-.55-.76-.58-.46-.07-.6-.13-.65-.79-.04-.53-.08-1.89-.08-4.09.35.23,2.33,1,4.24-.25,1.33-.87,1.96-2.12,1.96-3.79,0-1.13-.45-2.27-1.21-3.05"/>
      <path class="cls-1" d="M56.82,98.4c-.17-.07-.35-.03-.49.07-.16.11-.28.28-.39.44l-.12.17c-.16.23-.44.63-.56.74-.26.24-.43.3-2.43.3-1.52,0-1.74-.05-2.01-.19-.25-.13-.36-.49-.36-.63,0-.15,0-.68-.02-1.32-.02-1.04-.04-2.4-.04-3.05v-.1c2.83,0,2.63.02,2.99.13.1.04.2.18.28.42,0,0,.07.18.07.19.06.15.12.32.25.42.14.12.38.14.54.04.12-.07.2-.22.25-.35.05-.16.05-.32.02-.49-.02-.12-.08-.67-.04-1.04.02-.15.04-.34.06-.51.04-.27.07-.52.07-.6,0-.49-.31-.63-.5-.63-.34,0-.5.33-.56.45-.24.47-.37.56-.41.59-.08.05-.22.09-1.21.09h-1.8v-4.94c0-.2,0-.33.02-.4.73-.04,3.53-.02,4.03.07.17.03.42.07.81,1.01.06.15.14.31.26.42.14.12.36.16.53.08.14-.08.22-.24.25-.4.02-.11.03-.25,0-.36-.08-.35-.11-.8-.13-1.09l-.02-.25c-.07-.46-.27-.69-.58-.69-.09,0-.18,0-.3.01-.2.01-.48.03-.97.03-.41,0-1.35.01-2.32.02-1.02.01-2.08.02-2.57.02-.36,0-.66-.02-.93-.04-.25-.01-.47-.03-.71-.03-.41,0-.69.2-.69.5,0,.17.08.47.6.58.52.11.69.15.69,1.29,0,4.49-.02,6.53-.11,9.91-.02.71-.24.88-.87.98-.23.04-.71.13-.71.56,0,.09.04.54.78.54.09,0,.3-.01.57-.03.44-.03,1.03-.07,1.47-.07.81,0,1.77.02,2.8.04,1.17.02,2.42.05,3.62.05.18,0,.44-.08.63-.45.1-.21.21-.59.33-1.04.05-.2.11-.41.16-.59.04-.14.08-.27.07-.42,0-.18-.11-.37-.29-.45"/>
      <path class="cls-1" d="M75.65,87.01c-.09,0-.23,0-.39.02-.4.03-1.08.05-1.72,0-.94-.06-1.47.03-1.47.49,0,.4.39.5.7.57.52.14.79.2.79,1.26l.04,3.57c.02,1.78.05,3.68.06,4.75-2.36-2.64-7.39-8.35-8.66-9.99-.31-.4-.48-.62-.8-.62-.43,0-.93-.03-1.36-.06-.35-.02-.65-.04-.85-.04-.57,0-.86.18-.86.54,0,.47.5.55.73.58.48.08.66.17.86.33.1.07.23.18.23,1.24,0,1.35-.17,8.55-.23,9.27-.1,1.12-.21,1.16-.86,1.34-.28.08-.67.18-.67.59,0,.24.13.52.75.52.06,0,.17-.01.33-.03.52-.06,1.53-.08,2.15-.01,1.19.12,1.4-.18,1.4-.48,0-.43-.42-.54-.67-.61-.4-.11-.72-.3-.79-.47-.14-.3-.2-.77-.2-1.64,0-.46.02-2.52.03-4.55.01-1.33.02-2.63.03-3.47,1.16,1.36,2.59,3.01,3.98,4.62,2.27,2.63,4.42,5.11,5.2,6.07l.09.11c.18.22.36.46.57.65.15.14.39.22.59.13.16-.07.25-.24.29-.41.04-.2.02-.4.01-.6-.03-.7-.02-1.45-.01-2.39,0-.56.01-1.18.01-1.9,0-2.26.05-6.76.14-7.42.07-.48.1-.68.66-.87l.1-.03c.19-.07.53-.18.53-.55,0-.23-.13-.5-.73-.5"/>
      <path class="cls-1" d="M100.38,16.79l-4.25-2.66c-1.63-1.01-4.37-3.17-4.37-6.26,0-1.68.58-5.58,6-5.58,4.75,0,6.19,3.08,6.92,5.77l.06.12c.17.2.46.31.83.29.36-.02.82-.17,1.02-.47l.05-.08v-.1c0-2.13-.46-5.21-.98-6.6l-.08-.21h-.22c-.37,0-1.09-.09-1.78-.31-1.26-.34-3.24-.7-5.03-.7-6.68,0-11.17,3.8-11.17,9.47,0,4.57,3.2,7.64,5.89,9.41l5.05,3.3c3.7,2.38,4.21,4.85,4.21,7.17,0,2.88-1.95,5.79-6.32,5.79-5.43,0-7.8-4.18-8.83-7.69l-.04-.09c-.14-.21-.39-.33-.72-.33-.36-.01-.84.14-1.09.48l-.07.09v.11c.11,2.4.79,6.31,1.48,7.58l.04.08.08.05c1.3.75,4.12,2.01,8.45,2.01,6.97,0,11.65-4.08,11.65-10.16,0-4.22-2.22-7.65-6.8-10.48"/>
      <path class="cls-1" d="M135.67,2.87c-2.44-1.5-5.64-2.17-10.37-2.17s-7.84.07-10.57.43l-.1.03c-.28.14-.48.45-.52.82-.05.41.08.81.35,1.04l.08.07,2.01.22c2.09.23,2.21.82,2.21,5.37v19.61c0,5.64-.14,5.94-2.91,6.32l-1.22.18-.08.08c-.28.28-.32.75-.27,1.09.06.37.23.64.46.76l.08.04h.08c2.49-.12,4.36-.16,6.47-.16s4.07.06,6.9.16h.08s.07-.03.07-.03c.25-.12.42-.44.47-.85.05-.44-.06-.82-.3-1.02l-.07-.06-1.53-.17c-3.07-.34-3.22-.63-3.22-6.32V4.58c0-1.56,0-1.59,2.55-1.59,5.15,0,8.23,3.06,8.23,8.18s-2.4,7.66-7.59,8.62c-.27.09-.44.37-.45.74-.01.33.1.77.48.93l.13.03c2.55,0,5.34-.61,7.48-1.63,2.05-1,5.5-3.47,5.5-8.74,0-3.48-1.61-6.48-4.41-8.25"/>
      <path class="cls-1" d="M161.82,20c-.1.14-.83.14-1.07.14h-6.54c-.35,0-.93,0-1.02-.05-.03-.11.12-.55.21-.79l3.35-9.24c.42-1.13.78-2.05,1.01-2.59.29.72.65,1.8.98,2.79l2.87,8.66c.09.26.31.94.21,1.08M176.08,34.82l-.07-.05-1.52-.17c-2.04-.24-2.68-.77-4.25-5.42l-7.57-22.21c-.71-2.07-1.44-4.21-2.05-6.26-.13-.45-.54-.71-1.11-.71h-.15l-.1.11c-.61.72-1.45,1.58-2.61,1.92l-.28.08.05.29c.14.76-.16,1.72-.89,3.6l-5.42,14.35c-1.54,4.12-2.75,7.09-3.63,9.26-.4.99-.75,1.84-1.04,2.59-.6,1.54-1.5,2.28-2.92,2.4l-1.85.17-.08.06c-.22.18-.33.5-.31.89.02.33.14.76.44.96l.09.06,1.25-.05c1.23-.05,2.63-.11,3.94-.11l1.77.03c1.58.03,2.72.05,3.74.12h.08s.08-.03.08-.03c.31-.14.52-.46.56-.85.04-.43-.11-.83-.4-1.03l-.07-.05-1.84-.17c-1.24-.1-1.24-.39-1.24-.74,0-.39.2-1.45,1.15-4.31l1.86-5.58c.32-.96.48-1.06,1.71-1.06h8.02c1.52,0,1.56.12,1.87,1.1l2.34,7.23c.33,1,.67,2.1.67,2.71,0,.24-.49.53-1.57.63l-1.63.17-.07.05c-.27.19-.41.56-.38.98.03.42.23.75.53.9l.07.04,1.13-.04c1.36-.05,3.05-.12,5.05-.12,2.24,0,4.1.05,6.42.16h.12s.1-.07.1-.07c.26-.21.37-.66.36-1.01-.01-.37-.14-.67-.38-.83"/>
    </g>
  </g>
</svg>