<?xml version="1.0" encoding="UTF-8"?>
<svg id="Camada_2" data-name="Camada 2" xmlns="http://www.w3.org/2000/svg" viewBox="0 0 658.66 521">
  <defs>
    <style>
      .cls-1 {
        fill: #402b2e;
      }
    </style>
  </defs>
  <g id="Calque_1" data-name="Calque 1">
    <g>
      <path class="cls-1" d="M605.62,252.89c-8.54-22.57-23.29-40.65-43.5-53.68-49.95-32.2-115.02-32.01-164.68.68-20.06,13.2-34.66,31.6-42.95,54.15-11.2,30.46-11.25,63.43-.06,93.9,8.55,23.27,23.78,42.08,44.69,55.38,50.16,31.9,115.41,31.54,165.17-1.91,48.21-32.41,60.96-96.66,41.34-148.52ZM546.07,378.71c-15.67,19.19-38.59,32.86-64.64,33.35-24.89.47-47.65-11.77-63.55-29.45-39.7-44.13-41.34-111.39-4.52-157.89,16.01-20.22,40.12-34.53,66.57-34.7,27.12-.18,51.57,14.62,67.83,35.48,35.15,45.09,34.5,108.91-1.7,153.22Z"/>
      <path class="cls-1" d="M645.93,428.08c-4.68-.36-9.45,1.79-10.64,6.78-5.19,21.73-22.67,35.75-42.75,45.22-51.7,24.39-108.89,11.86-160.48-8.81-30.16-12.08-58.23-26.38-86.45-42.48l-77-43.93c-14.78-8.43-29.2-15.65-45.41-22.4,44.7-51.78,73.18-109.06,101.77-169.97,20.31-43.27,43.87-95.9,75.22-130.71,24.36-27.05,58.56-42,94.92-39.7,14.21.9,27.42,5,38.53,13.63,14.22,11.04,22.6,28.27,19.7,46.4-3.32,20.72-23.53,35.48-43.96,33.03-9.67-1.16-15.5-8.62-16.68-17.4-.69-5.12-2.91-10.1-7.22-12.84-4.99-3.17-11.16-2.98-16.68-.37-4.24,2.01-8.21,6.62-9.51,12.3-2.57,11.22,2.28,22,11.59,28.8,19.06,13.91,51.88,11.37,73.95,2.74,12.97-5.07,23.8-12.91,32.02-23.92,19.4-25.98,14.92-61.25-9.78-82.43-12.91-11.08-28.83-17.97-46.44-20.36-48.25-6.57-97.62,6.57-136.3,36.03-32.46,24.72-62.45,72.56-80.86,109.29l-39.73,79.23c-21.6,43.08-43.36,85.73-73.78,122.9-33.22-11.17-67.86-15.94-102.68-13.22-32.15,2.51-71.55,17.41-84.1,47.59-5.86,14.1-3.64,29.06,6.72,40.09,7.16,7.63,16.14,12.64,26.44,15.65,59.96,17.49,115.89-11.4,161.09-49.62,12.25,5.43,23.05,11.4,34.2,18.22l58.29,35.68c24.23,14.83,48.29,27.95,74.13,39.83,57.1,26.26,116.17,42.03,179.25,36.62,38.14-3.28,79.85-15.72,102.94-47.12,6.51-8.85,10.99-18.78,12.29-29.49,1.01-8.32-4.38-14.61-12.61-15.24ZM113.84,411.21c-19.64,8.53-47.7,14.85-65.04,3.46-10.58-6.95-13.73-19.98-7.59-30.99,8.19-14.7,26.63-21.34,43.49-23.56,18.31-1.88,36.12-.25,53.8,4.8l28.52,10.11c-16.15,15.06-33.3,27.55-53.18,36.18Z"/>
    </g>
  </g>
</svg>